<mxfile host="app.diagrams.net" modified="2023-08-14T11:13:01.467Z" agent="Mozilla/5.0 (Macintosh; Intel Mac OS X 10_15_6) AppleWebKit/605.1.15 (KHTML, like Gecko) Version/15.5 Safari/605.1.15" etag="jcCfey8BIPj77jt2StzU" version="21.6.8" type="github">
  <diagram name="หน้า-1" id="4wCbAk8ZCSguRrX8qUt5">
    <mxGraphModel dx="5580" dy="12747" grid="1" gridSize="10" guides="1" tooltips="1" connect="1" arrows="1" fold="1" page="0" pageScale="1" pageWidth="827" pageHeight="1169" math="0" shadow="0">
      <root>
        <mxCell id="0" />
        <mxCell id="1" parent="0" />
        <mxCell id="fo_EU_42IXRzwxVgpPz2-76" value="Is rotation successed?" style="rhombus;whiteSpace=wrap;html=1;fontSize=16;" vertex="1" parent="1">
          <mxGeometry x="-3057.82" y="-9010" width="130" height="130" as="geometry" />
        </mxCell>
        <mxCell id="fo_EU_42IXRzwxVgpPz2-1" value="Set i = 0" style="shape=parallelogram;perimeter=parallelogramPerimeter;whiteSpace=wrap;html=1;fixedSize=1;fontSize=16;" vertex="1" parent="1">
          <mxGeometry x="-3060" y="-10130" width="137.5" height="40" as="geometry" />
        </mxCell>
        <mxCell id="fo_EU_42IXRzwxVgpPz2-2" value="Start" style="rounded=1;whiteSpace=wrap;html=1;arcSize=50;" vertex="1" parent="1">
          <mxGeometry x="-3036.25" y="-10580" width="90" height="40" as="geometry" />
        </mxCell>
        <mxCell id="fo_EU_42IXRzwxVgpPz2-3" value="Wait" style="rounded=0;whiteSpace=wrap;html=1;" vertex="1" parent="1">
          <mxGeometry x="-3036.25" y="-10500" width="90" height="40" as="geometry" />
        </mxCell>
        <mxCell id="fo_EU_42IXRzwxVgpPz2-4" value="" style="endArrow=classic;html=1;rounded=0;fontSize=12;startSize=8;endSize=8;curved=1;entryX=0.5;entryY=0;entryDx=0;entryDy=0;exitX=0.5;exitY=1;exitDx=0;exitDy=0;" edge="1" parent="1" source="fo_EU_42IXRzwxVgpPz2-2" target="fo_EU_42IXRzwxVgpPz2-3">
          <mxGeometry width="50" height="50" relative="1" as="geometry">
            <mxPoint x="-3051.25" y="-10520" as="sourcePoint" />
            <mxPoint x="-3036.25" y="-10510" as="targetPoint" />
          </mxGeometry>
        </mxCell>
        <mxCell id="fo_EU_42IXRzwxVgpPz2-5" value="Is the button pressed?" style="rhombus;whiteSpace=wrap;html=1;fontSize=16;" vertex="1" parent="1">
          <mxGeometry x="-3058.75" y="-10420" width="135" height="120" as="geometry" />
        </mxCell>
        <mxCell id="fo_EU_42IXRzwxVgpPz2-6" value="" style="endArrow=classic;html=1;rounded=0;fontSize=12;startSize=8;endSize=8;curved=1;exitX=0.5;exitY=1;exitDx=0;exitDy=0;entryX=0.5;entryY=0;entryDx=0;entryDy=0;" edge="1" parent="1" source="fo_EU_42IXRzwxVgpPz2-3" target="fo_EU_42IXRzwxVgpPz2-5">
          <mxGeometry width="50" height="50" relative="1" as="geometry">
            <mxPoint x="-2926.25" y="-10410" as="sourcePoint" />
            <mxPoint x="-2876.25" y="-10460" as="targetPoint" />
          </mxGeometry>
        </mxCell>
        <mxCell id="fo_EU_42IXRzwxVgpPz2-7" value="Program starts working" style="rounded=0;whiteSpace=wrap;html=1;fontSize=16;" vertex="1" parent="1">
          <mxGeometry x="-3051.25" y="-10220" width="120" height="40" as="geometry" />
        </mxCell>
        <mxCell id="fo_EU_42IXRzwxVgpPz2-8" value="" style="endArrow=classic;html=1;rounded=0;fontSize=12;startSize=8;endSize=8;curved=1;exitX=0.5;exitY=1;exitDx=0;exitDy=0;entryX=0.5;entryY=0;entryDx=0;entryDy=0;" edge="1" parent="1" source="fo_EU_42IXRzwxVgpPz2-5" target="fo_EU_42IXRzwxVgpPz2-7">
          <mxGeometry relative="1" as="geometry">
            <mxPoint x="-2926.25" y="-10390" as="sourcePoint" />
            <mxPoint x="-2826.25" y="-10390" as="targetPoint" />
          </mxGeometry>
        </mxCell>
        <mxCell id="fo_EU_42IXRzwxVgpPz2-9" value="Yes" style="edgeLabel;resizable=0;html=1;align=center;verticalAlign=middle;fontSize=16;" connectable="0" vertex="1" parent="fo_EU_42IXRzwxVgpPz2-8">
          <mxGeometry relative="1" as="geometry" />
        </mxCell>
        <mxCell id="fo_EU_42IXRzwxVgpPz2-10" value="" style="endArrow=classic;html=1;rounded=0;fontSize=12;startSize=8;endSize=8;curved=1;entryX=0.5;entryY=0;entryDx=0;entryDy=0;" edge="1" parent="1">
          <mxGeometry relative="1" as="geometry">
            <mxPoint x="-2866.25" y="-10520" as="sourcePoint" />
            <mxPoint x="-2991.25" y="-10520" as="targetPoint" />
          </mxGeometry>
        </mxCell>
        <mxCell id="fo_EU_42IXRzwxVgpPz2-12" value="" style="endArrow=none;html=1;rounded=0;fontSize=12;startSize=8;endSize=8;curved=1;" edge="1" parent="1">
          <mxGeometry width="50" height="50" relative="1" as="geometry">
            <mxPoint x="-2866.25" y="-10520" as="sourcePoint" />
            <mxPoint x="-2866.25" y="-10360" as="targetPoint" />
          </mxGeometry>
        </mxCell>
        <mxCell id="fo_EU_42IXRzwxVgpPz2-85" value="No" style="edgeLabel;html=1;align=center;verticalAlign=middle;resizable=0;points=[];fontSize=16;" vertex="1" connectable="0" parent="fo_EU_42IXRzwxVgpPz2-12">
          <mxGeometry x="0.2161" y="3" relative="1" as="geometry">
            <mxPoint as="offset" />
          </mxGeometry>
        </mxCell>
        <mxCell id="fo_EU_42IXRzwxVgpPz2-13" value="" style="endArrow=none;html=1;rounded=0;fontSize=12;startSize=8;endSize=8;curved=1;exitX=1;exitY=0.5;exitDx=0;exitDy=0;" edge="1" parent="1" source="fo_EU_42IXRzwxVgpPz2-5">
          <mxGeometry width="50" height="50" relative="1" as="geometry">
            <mxPoint x="-2931.25" y="-10280" as="sourcePoint" />
            <mxPoint x="-2866.25" y="-10360" as="targetPoint" />
          </mxGeometry>
        </mxCell>
        <mxCell id="fo_EU_42IXRzwxVgpPz2-14" value="" style="endArrow=classic;html=1;rounded=0;fontSize=12;startSize=8;endSize=8;curved=1;exitX=0.5;exitY=1;exitDx=0;exitDy=0;entryX=0.5;entryY=0;entryDx=0;entryDy=0;" edge="1" parent="1" source="fo_EU_42IXRzwxVgpPz2-7" target="fo_EU_42IXRzwxVgpPz2-1">
          <mxGeometry width="50" height="50" relative="1" as="geometry">
            <mxPoint x="-3006.25" y="-10160" as="sourcePoint" />
            <mxPoint x="-2966.25" y="-10140" as="targetPoint" />
          </mxGeometry>
        </mxCell>
        <mxCell id="fo_EU_42IXRzwxVgpPz2-15" value="Walk forward" style="rounded=0;whiteSpace=wrap;html=1;fontSize=16;" vertex="1" parent="1">
          <mxGeometry x="-3051.25" y="-10040" width="120" height="30" as="geometry" />
        </mxCell>
        <mxCell id="fo_EU_42IXRzwxVgpPz2-16" value="" style="endArrow=classic;html=1;rounded=0;fontSize=12;startSize=8;endSize=8;curved=1;exitX=0.5;exitY=1;exitDx=0;exitDy=0;entryX=0.5;entryY=0;entryDx=0;entryDy=0;" edge="1" parent="1" source="fo_EU_42IXRzwxVgpPz2-1" target="fo_EU_42IXRzwxVgpPz2-15">
          <mxGeometry width="50" height="50" relative="1" as="geometry">
            <mxPoint x="-2996.25" y="-9990" as="sourcePoint" />
            <mxPoint x="-2946.25" y="-10040" as="targetPoint" />
          </mxGeometry>
        </mxCell>
        <mxCell id="fo_EU_42IXRzwxVgpPz2-17" value="Rplidar checks left and right walls" style="rounded=0;whiteSpace=wrap;html=1;fontSize=16;" vertex="1" parent="1">
          <mxGeometry x="-3051.25" y="-9980" width="120" height="60" as="geometry" />
        </mxCell>
        <mxCell id="fo_EU_42IXRzwxVgpPz2-18" value="" style="endArrow=classic;html=1;rounded=0;fontSize=12;startSize=8;endSize=8;curved=1;exitX=0.5;exitY=1;exitDx=0;exitDy=0;entryX=0.5;entryY=0;entryDx=0;entryDy=0;" edge="1" parent="1" source="fo_EU_42IXRzwxVgpPz2-15" target="fo_EU_42IXRzwxVgpPz2-17">
          <mxGeometry width="50" height="50" relative="1" as="geometry">
            <mxPoint x="-3030" y="-9890" as="sourcePoint" />
            <mxPoint x="-2980" y="-9940" as="targetPoint" />
          </mxGeometry>
        </mxCell>
        <mxCell id="fo_EU_42IXRzwxVgpPz2-19" value="Is left walls closer from side?" style="rhombus;whiteSpace=wrap;html=1;fontSize=16;" vertex="1" parent="1">
          <mxGeometry x="-3066.87" y="-9880" width="151.25" height="170" as="geometry" />
        </mxCell>
        <mxCell id="fo_EU_42IXRzwxVgpPz2-20" value="" style="endArrow=classic;html=1;rounded=0;fontSize=12;startSize=8;endSize=8;curved=1;exitX=0.5;exitY=1;exitDx=0;exitDy=0;entryX=0.5;entryY=0;entryDx=0;entryDy=0;" edge="1" parent="1" source="fo_EU_42IXRzwxVgpPz2-17" target="fo_EU_42IXRzwxVgpPz2-19">
          <mxGeometry width="50" height="50" relative="1" as="geometry">
            <mxPoint x="-3010" y="-9850" as="sourcePoint" />
            <mxPoint x="-2960" y="-9900" as="targetPoint" />
          </mxGeometry>
        </mxCell>
        <mxCell id="fo_EU_42IXRzwxVgpPz2-22" value="Turn right a little bit" style="rounded=0;whiteSpace=wrap;html=1;fontSize=16;" vertex="1" parent="1">
          <mxGeometry x="-3310" y="-9825" width="120" height="60" as="geometry" />
        </mxCell>
        <mxCell id="fo_EU_42IXRzwxVgpPz2-24" value="" style="endArrow=classic;html=1;rounded=0;fontSize=12;startSize=8;endSize=8;curved=1;exitX=0;exitY=0.5;exitDx=0;exitDy=0;entryX=1;entryY=0.5;entryDx=0;entryDy=0;" edge="1" parent="1" source="fo_EU_42IXRzwxVgpPz2-19" target="fo_EU_42IXRzwxVgpPz2-22">
          <mxGeometry relative="1" as="geometry">
            <mxPoint x="-3140" y="-9730" as="sourcePoint" />
            <mxPoint x="-3040" y="-9730" as="targetPoint" />
          </mxGeometry>
        </mxCell>
        <mxCell id="fo_EU_42IXRzwxVgpPz2-25" value="Yes" style="edgeLabel;resizable=0;html=1;align=center;verticalAlign=middle;fontSize=16;" connectable="0" vertex="1" parent="fo_EU_42IXRzwxVgpPz2-24">
          <mxGeometry relative="1" as="geometry" />
        </mxCell>
        <mxCell id="fo_EU_42IXRzwxVgpPz2-26" value="Turn left a little bit" style="rounded=0;whiteSpace=wrap;html=1;fontSize=16;" vertex="1" parent="1">
          <mxGeometry x="-2820" y="-9825" width="120" height="60" as="geometry" />
        </mxCell>
        <mxCell id="fo_EU_42IXRzwxVgpPz2-27" value="" style="endArrow=classic;html=1;rounded=0;fontSize=12;startSize=8;endSize=8;curved=1;exitX=1;exitY=0.5;exitDx=0;exitDy=0;entryX=0;entryY=0.5;entryDx=0;entryDy=0;" edge="1" parent="1" source="fo_EU_42IXRzwxVgpPz2-19" target="fo_EU_42IXRzwxVgpPz2-26">
          <mxGeometry relative="1" as="geometry">
            <mxPoint x="-2960" y="-9730" as="sourcePoint" />
            <mxPoint x="-2860" y="-9730" as="targetPoint" />
          </mxGeometry>
        </mxCell>
        <mxCell id="fo_EU_42IXRzwxVgpPz2-28" value="No" style="edgeLabel;resizable=0;html=1;align=center;verticalAlign=middle;fontSize=16;" connectable="0" vertex="1" parent="fo_EU_42IXRzwxVgpPz2-27">
          <mxGeometry relative="1" as="geometry" />
        </mxCell>
        <mxCell id="fo_EU_42IXRzwxVgpPz2-31" value="Is front wall found?" style="rhombus;whiteSpace=wrap;html=1;fontSize=16;" vertex="1" parent="1">
          <mxGeometry x="-3056.25" y="-9630" width="130" height="110" as="geometry" />
        </mxCell>
        <mxCell id="fo_EU_42IXRzwxVgpPz2-32" value="" style="endArrow=classic;html=1;rounded=0;fontSize=12;startSize=8;endSize=8;curved=1;entryX=0.5;entryY=0;entryDx=0;entryDy=0;" edge="1" parent="1" target="fo_EU_42IXRzwxVgpPz2-31">
          <mxGeometry width="50" height="50" relative="1" as="geometry">
            <mxPoint x="-2991" y="-9670" as="sourcePoint" />
            <mxPoint x="-3020" y="-9630" as="targetPoint" />
          </mxGeometry>
        </mxCell>
        <mxCell id="fo_EU_42IXRzwxVgpPz2-33" value="" style="endArrow=none;html=1;rounded=0;fontSize=12;startSize=8;endSize=8;curved=1;entryX=0.5;entryY=1;entryDx=0;entryDy=0;" edge="1" parent="1" target="fo_EU_42IXRzwxVgpPz2-26">
          <mxGeometry width="50" height="50" relative="1" as="geometry">
            <mxPoint x="-2760" y="-9670" as="sourcePoint" />
            <mxPoint x="-2760" y="-9760" as="targetPoint" />
          </mxGeometry>
        </mxCell>
        <mxCell id="fo_EU_42IXRzwxVgpPz2-34" value="" style="endArrow=none;html=1;rounded=0;fontSize=12;startSize=8;endSize=8;curved=1;entryX=0.5;entryY=1;entryDx=0;entryDy=0;" edge="1" parent="1" target="fo_EU_42IXRzwxVgpPz2-22">
          <mxGeometry width="50" height="50" relative="1" as="geometry">
            <mxPoint x="-3250" y="-9670" as="sourcePoint" />
            <mxPoint x="-3080" y="-9720" as="targetPoint" />
          </mxGeometry>
        </mxCell>
        <mxCell id="fo_EU_42IXRzwxVgpPz2-36" value="" style="endArrow=none;html=1;rounded=0;fontSize=12;startSize=8;endSize=8;curved=1;" edge="1" parent="1">
          <mxGeometry width="50" height="50" relative="1" as="geometry">
            <mxPoint x="-3250" y="-9670" as="sourcePoint" />
            <mxPoint x="-2760" y="-9670" as="targetPoint" />
          </mxGeometry>
        </mxCell>
        <mxCell id="fo_EU_42IXRzwxVgpPz2-37" value="" style="endArrow=classic;html=1;rounded=0;fontSize=12;startSize=8;endSize=8;curved=1;entryX=0;entryY=0.5;entryDx=0;entryDy=0;" edge="1" parent="1" target="fo_EU_42IXRzwxVgpPz2-15">
          <mxGeometry width="50" height="50" relative="1" as="geometry">
            <mxPoint x="-3360" y="-10025" as="sourcePoint" />
            <mxPoint x="-3050" y="-9780" as="targetPoint" />
          </mxGeometry>
        </mxCell>
        <mxCell id="fo_EU_42IXRzwxVgpPz2-42" value="No" style="edgeLabel;html=1;align=center;verticalAlign=middle;resizable=0;points=[];fontSize=16;" vertex="1" connectable="0" parent="fo_EU_42IXRzwxVgpPz2-37">
          <mxGeometry x="-0.0888" y="4" relative="1" as="geometry">
            <mxPoint as="offset" />
          </mxGeometry>
        </mxCell>
        <mxCell id="fo_EU_42IXRzwxVgpPz2-38" value="" style="endArrow=none;html=1;rounded=0;fontSize=12;startSize=8;endSize=8;curved=1;" edge="1" parent="1">
          <mxGeometry width="50" height="50" relative="1" as="geometry">
            <mxPoint x="-3360" y="-9567.5" as="sourcePoint" />
            <mxPoint x="-3360" y="-10030" as="targetPoint" />
          </mxGeometry>
        </mxCell>
        <mxCell id="fo_EU_42IXRzwxVgpPz2-39" value="" style="endArrow=none;html=1;rounded=0;fontSize=12;startSize=8;endSize=8;curved=1;entryX=0;entryY=0.5;entryDx=0;entryDy=0;" edge="1" parent="1" target="fo_EU_42IXRzwxVgpPz2-31">
          <mxGeometry width="50" height="50" relative="1" as="geometry">
            <mxPoint x="-3360" y="-9575" as="sourcePoint" />
            <mxPoint x="-3240" y="-9680" as="targetPoint" />
          </mxGeometry>
        </mxCell>
        <mxCell id="fo_EU_42IXRzwxVgpPz2-43" value="Is rotating direction set?" style="rhombus;whiteSpace=wrap;html=1;fontSize=16;" vertex="1" parent="1">
          <mxGeometry x="-3060" y="-9440" width="134.37" height="140" as="geometry" />
        </mxCell>
        <mxCell id="fo_EU_42IXRzwxVgpPz2-44" value="" style="endArrow=classic;html=1;rounded=0;fontSize=12;startSize=8;endSize=8;curved=1;entryX=0.5;entryY=0;entryDx=0;entryDy=0;exitX=0.5;exitY=1;exitDx=0;exitDy=0;" edge="1" parent="1" source="fo_EU_42IXRzwxVgpPz2-31" target="fo_EU_42IXRzwxVgpPz2-43">
          <mxGeometry width="50" height="50" relative="1" as="geometry">
            <mxPoint x="-2995" y="-9520" as="sourcePoint" />
            <mxPoint x="-2946.25" y="-9510" as="targetPoint" />
          </mxGeometry>
        </mxCell>
        <mxCell id="fo_EU_42IXRzwxVgpPz2-45" value="No" style="edgeLabel;html=1;align=center;verticalAlign=middle;resizable=0;points=[];fontSize=16;" vertex="1" connectable="0" parent="fo_EU_42IXRzwxVgpPz2-44">
          <mxGeometry x="-0.5289" y="2" relative="1" as="geometry">
            <mxPoint as="offset" />
          </mxGeometry>
        </mxCell>
        <mxCell id="fo_EU_42IXRzwxVgpPz2-46" value="Rotate as set rotating direction" style="rounded=0;whiteSpace=wrap;html=1;fontSize=16;" vertex="1" parent="1">
          <mxGeometry x="-3052.82" y="-9120" width="120" height="60" as="geometry" />
        </mxCell>
        <mxCell id="fo_EU_42IXRzwxVgpPz2-47" value="" style="endArrow=classic;html=1;rounded=0;fontSize=12;startSize=8;endSize=8;curved=1;exitX=0.5;exitY=1;exitDx=0;exitDy=0;entryX=0.5;entryY=0;entryDx=0;entryDy=0;" edge="1" parent="1" source="fo_EU_42IXRzwxVgpPz2-43" target="fo_EU_42IXRzwxVgpPz2-46">
          <mxGeometry relative="1" as="geometry">
            <mxPoint x="-3050" y="-9200" as="sourcePoint" />
            <mxPoint x="-2950" y="-9200" as="targetPoint" />
          </mxGeometry>
        </mxCell>
        <mxCell id="fo_EU_42IXRzwxVgpPz2-48" value="Yes" style="edgeLabel;resizable=0;html=1;align=center;verticalAlign=middle;fontSize=16;" connectable="0" vertex="1" parent="fo_EU_42IXRzwxVgpPz2-47">
          <mxGeometry relative="1" as="geometry" />
        </mxCell>
        <mxCell id="fo_EU_42IXRzwxVgpPz2-49" value="Rplidar checks &amp;nbsp;left and right walls" style="rounded=0;whiteSpace=wrap;html=1;fontSize=16;" vertex="1" parent="1">
          <mxGeometry x="-2820" y="-9605" width="120" height="60" as="geometry" />
        </mxCell>
        <mxCell id="fo_EU_42IXRzwxVgpPz2-50" value="" style="endArrow=classic;html=1;rounded=0;fontSize=12;startSize=8;endSize=8;curved=1;entryX=0;entryY=0.5;entryDx=0;entryDy=0;" edge="1" parent="1" target="fo_EU_42IXRzwxVgpPz2-49">
          <mxGeometry relative="1" as="geometry">
            <mxPoint x="-2890" y="-9575" as="sourcePoint" />
            <mxPoint x="-2826.25" y="-9545" as="targetPoint" />
          </mxGeometry>
        </mxCell>
        <mxCell id="fo_EU_42IXRzwxVgpPz2-52" value="" style="endArrow=none;html=1;rounded=0;fontSize=12;startSize=8;endSize=8;curved=1;" edge="1" parent="1">
          <mxGeometry width="50" height="50" relative="1" as="geometry">
            <mxPoint x="-2890" y="-9370" as="sourcePoint" />
            <mxPoint x="-2890" y="-9580" as="targetPoint" />
          </mxGeometry>
        </mxCell>
        <mxCell id="fo_EU_42IXRzwxVgpPz2-84" value="No" style="edgeLabel;html=1;align=center;verticalAlign=middle;resizable=0;points=[];fontSize=16;" vertex="1" connectable="0" parent="fo_EU_42IXRzwxVgpPz2-52">
          <mxGeometry x="0.1072" y="-5" relative="1" as="geometry">
            <mxPoint as="offset" />
          </mxGeometry>
        </mxCell>
        <mxCell id="fo_EU_42IXRzwxVgpPz2-54" value="" style="endArrow=none;html=1;rounded=0;fontSize=12;startSize=8;endSize=8;curved=1;exitX=1;exitY=0.5;exitDx=0;exitDy=0;" edge="1" parent="1" source="fo_EU_42IXRzwxVgpPz2-43">
          <mxGeometry width="50" height="50" relative="1" as="geometry">
            <mxPoint x="-2930" y="-9200" as="sourcePoint" />
            <mxPoint x="-2890" y="-9370" as="targetPoint" />
          </mxGeometry>
        </mxCell>
        <mxCell id="fo_EU_42IXRzwxVgpPz2-55" value="Is left walls closer from side?" style="rhombus;whiteSpace=wrap;html=1;fontSize=16;" vertex="1" parent="1">
          <mxGeometry x="-2835.63" y="-9500" width="151.25" height="170" as="geometry" />
        </mxCell>
        <mxCell id="fo_EU_42IXRzwxVgpPz2-56" value="" style="endArrow=classic;html=1;rounded=0;fontSize=12;startSize=8;endSize=8;curved=1;exitX=0.5;exitY=1;exitDx=0;exitDy=0;entryX=0.5;entryY=0;entryDx=0;entryDy=0;" edge="1" parent="1" source="fo_EU_42IXRzwxVgpPz2-49" target="fo_EU_42IXRzwxVgpPz2-55">
          <mxGeometry width="50" height="50" relative="1" as="geometry">
            <mxPoint x="-2810" y="-9430" as="sourcePoint" />
            <mxPoint x="-2750" y="-9500" as="targetPoint" />
          </mxGeometry>
        </mxCell>
        <mxCell id="fo_EU_42IXRzwxVgpPz2-58" value="Set rotating direction to right" style="rounded=0;whiteSpace=wrap;html=1;fontSize=16;" vertex="1" parent="1">
          <mxGeometry x="-2922.5" y="-9280" width="130" height="60" as="geometry" />
        </mxCell>
        <mxCell id="fo_EU_42IXRzwxVgpPz2-59" value="Set rotating direction to left" style="rounded=0;whiteSpace=wrap;html=1;fontSize=16;" vertex="1" parent="1">
          <mxGeometry x="-2690" y="-9280" width="130" height="60" as="geometry" />
        </mxCell>
        <mxCell id="fo_EU_42IXRzwxVgpPz2-60" value="" style="endArrow=classic;html=1;rounded=0;fontSize=12;startSize=8;endSize=8;curved=1;" edge="1" parent="1">
          <mxGeometry width="50" height="50" relative="1" as="geometry">
            <mxPoint x="-2860" y="-9420" as="sourcePoint" />
            <mxPoint x="-2860" y="-9280" as="targetPoint" />
          </mxGeometry>
        </mxCell>
        <mxCell id="fo_EU_42IXRzwxVgpPz2-86" value="Yes" style="edgeLabel;html=1;align=center;verticalAlign=middle;resizable=0;points=[];fontSize=16;" vertex="1" connectable="0" parent="fo_EU_42IXRzwxVgpPz2-60">
          <mxGeometry x="-0.0832" y="-1" relative="1" as="geometry">
            <mxPoint as="offset" />
          </mxGeometry>
        </mxCell>
        <mxCell id="fo_EU_42IXRzwxVgpPz2-61" value="" style="endArrow=none;html=1;rounded=0;fontSize=12;startSize=8;endSize=8;curved=1;entryX=0;entryY=0.5;entryDx=0;entryDy=0;" edge="1" parent="1" target="fo_EU_42IXRzwxVgpPz2-55">
          <mxGeometry width="50" height="50" relative="1" as="geometry">
            <mxPoint x="-2860" y="-9415" as="sourcePoint" />
            <mxPoint x="-2780" y="-9400" as="targetPoint" />
          </mxGeometry>
        </mxCell>
        <mxCell id="fo_EU_42IXRzwxVgpPz2-66" value="No" style="endArrow=classic;html=1;rounded=0;fontSize=12;startSize=8;endSize=8;curved=1;entryX=0.5;entryY=0;entryDx=0;entryDy=0;" edge="1" parent="1" target="fo_EU_42IXRzwxVgpPz2-59">
          <mxGeometry width="50" height="50" relative="1" as="geometry">
            <mxPoint x="-2630" y="-9420" as="sourcePoint" />
            <mxPoint x="-2720" y="-9380" as="targetPoint" />
          </mxGeometry>
        </mxCell>
        <mxCell id="fo_EU_42IXRzwxVgpPz2-67" value="" style="endArrow=none;html=1;rounded=0;fontSize=12;startSize=8;endSize=8;curved=1;exitX=1;exitY=0.5;exitDx=0;exitDy=0;" edge="1" parent="1" source="fo_EU_42IXRzwxVgpPz2-55">
          <mxGeometry width="50" height="50" relative="1" as="geometry">
            <mxPoint x="-2650" y="-9290" as="sourcePoint" />
            <mxPoint x="-2630" y="-9415" as="targetPoint" />
          </mxGeometry>
        </mxCell>
        <mxCell id="fo_EU_42IXRzwxVgpPz2-70" value="" style="endArrow=classic;html=1;rounded=0;fontSize=12;startSize=8;endSize=8;curved=1;entryX=1;entryY=0.5;entryDx=0;entryDy=0;" edge="1" parent="1" target="fo_EU_42IXRzwxVgpPz2-46">
          <mxGeometry width="50" height="50" relative="1" as="geometry">
            <mxPoint x="-2750" y="-9090" as="sourcePoint" />
            <mxPoint x="-2810" y="-9250" as="targetPoint" />
          </mxGeometry>
        </mxCell>
        <mxCell id="fo_EU_42IXRzwxVgpPz2-71" value="" style="endArrow=none;html=1;rounded=0;fontSize=12;startSize=8;endSize=8;curved=1;" edge="1" parent="1">
          <mxGeometry width="50" height="50" relative="1" as="geometry">
            <mxPoint x="-2860" y="-9180" as="sourcePoint" />
            <mxPoint x="-2620" y="-9180" as="targetPoint" />
          </mxGeometry>
        </mxCell>
        <mxCell id="fo_EU_42IXRzwxVgpPz2-72" value="" style="endArrow=none;html=1;rounded=0;fontSize=12;startSize=8;endSize=8;curved=1;entryX=0.5;entryY=1;entryDx=0;entryDy=0;" edge="1" parent="1" target="fo_EU_42IXRzwxVgpPz2-59">
          <mxGeometry width="50" height="50" relative="1" as="geometry">
            <mxPoint x="-2625" y="-9180" as="sourcePoint" />
            <mxPoint x="-2700" y="-9200" as="targetPoint" />
          </mxGeometry>
        </mxCell>
        <mxCell id="fo_EU_42IXRzwxVgpPz2-73" value="" style="endArrow=none;html=1;rounded=0;fontSize=12;startSize=8;endSize=8;curved=1;entryX=0.5;entryY=1;entryDx=0;entryDy=0;" edge="1" parent="1" target="fo_EU_42IXRzwxVgpPz2-58">
          <mxGeometry width="50" height="50" relative="1" as="geometry">
            <mxPoint x="-2857" y="-9180" as="sourcePoint" />
            <mxPoint x="-2872.5" y="-9200" as="targetPoint" />
          </mxGeometry>
        </mxCell>
        <mxCell id="fo_EU_42IXRzwxVgpPz2-74" value="" style="endArrow=none;html=1;rounded=0;fontSize=12;startSize=8;endSize=8;curved=1;" edge="1" parent="1">
          <mxGeometry width="50" height="50" relative="1" as="geometry">
            <mxPoint x="-2750" y="-9180" as="sourcePoint" />
            <mxPoint x="-2750" y="-9090" as="targetPoint" />
          </mxGeometry>
        </mxCell>
        <mxCell id="fo_EU_42IXRzwxVgpPz2-78" value="" style="endArrow=classic;html=1;rounded=0;fontSize=12;startSize=8;endSize=8;curved=1;exitX=0.5;exitY=1;exitDx=0;exitDy=0;entryX=0.5;entryY=0;entryDx=0;entryDy=0;" edge="1" parent="1" source="fo_EU_42IXRzwxVgpPz2-46" target="fo_EU_42IXRzwxVgpPz2-76">
          <mxGeometry width="50" height="50" relative="1" as="geometry">
            <mxPoint x="-3040" y="-9030" as="sourcePoint" />
            <mxPoint x="-2990" y="-9080" as="targetPoint" />
          </mxGeometry>
        </mxCell>
        <mxCell id="fo_EU_42IXRzwxVgpPz2-80" value="" style="endArrow=classic;html=1;rounded=0;fontSize=12;startSize=8;endSize=8;curved=1;entryX=0;entryY=0.5;entryDx=0;entryDy=0;" edge="1" parent="1" target="fo_EU_42IXRzwxVgpPz2-46">
          <mxGeometry width="50" height="50" relative="1" as="geometry">
            <mxPoint x="-3160" y="-9090" as="sourcePoint" />
            <mxPoint x="-3050" y="-8980" as="targetPoint" />
            <Array as="points">
              <mxPoint x="-3100" y="-9090" />
            </Array>
          </mxGeometry>
        </mxCell>
        <mxCell id="fo_EU_42IXRzwxVgpPz2-81" value="" style="endArrow=none;html=1;rounded=0;fontSize=12;startSize=8;endSize=8;curved=1;entryX=0;entryY=0.5;entryDx=0;entryDy=0;" edge="1" parent="1" target="fo_EU_42IXRzwxVgpPz2-76">
          <mxGeometry width="50" height="50" relative="1" as="geometry">
            <mxPoint x="-3160" y="-8945" as="sourcePoint" />
            <mxPoint x="-3080.02" y="-8945" as="targetPoint" />
          </mxGeometry>
        </mxCell>
        <mxCell id="fo_EU_42IXRzwxVgpPz2-83" value="No" style="edgeLabel;html=1;align=center;verticalAlign=middle;resizable=0;points=[];fontSize=16;" vertex="1" connectable="0" parent="fo_EU_42IXRzwxVgpPz2-81">
          <mxGeometry x="0.0976" relative="1" as="geometry">
            <mxPoint as="offset" />
          </mxGeometry>
        </mxCell>
        <mxCell id="fo_EU_42IXRzwxVgpPz2-82" value="" style="endArrow=none;html=1;rounded=0;fontSize=12;startSize=8;endSize=8;curved=1;" edge="1" parent="1">
          <mxGeometry width="50" height="50" relative="1" as="geometry">
            <mxPoint x="-3160" y="-8940" as="sourcePoint" />
            <mxPoint x="-3160" y="-9090" as="targetPoint" />
          </mxGeometry>
        </mxCell>
        <mxCell id="fo_EU_42IXRzwxVgpPz2-87" value="i = i + 1" style="rounded=0;whiteSpace=wrap;html=1;fontSize=16;" vertex="1" parent="1">
          <mxGeometry x="-3052.82" y="-8810" width="120" height="40" as="geometry" />
        </mxCell>
        <mxCell id="fo_EU_42IXRzwxVgpPz2-88" value="" style="endArrow=classic;html=1;rounded=0;fontSize=12;startSize=8;endSize=8;curved=1;entryX=0.5;entryY=0;entryDx=0;entryDy=0;exitX=0.5;exitY=1;exitDx=0;exitDy=0;" edge="1" parent="1" source="fo_EU_42IXRzwxVgpPz2-76" target="fo_EU_42IXRzwxVgpPz2-87">
          <mxGeometry width="50" height="50" relative="1" as="geometry">
            <mxPoint x="-2990" y="-8880" as="sourcePoint" />
            <mxPoint x="-2970" y="-8900" as="targetPoint" />
          </mxGeometry>
        </mxCell>
        <mxCell id="fo_EU_42IXRzwxVgpPz2-89" value="Yes" style="edgeLabel;html=1;align=center;verticalAlign=middle;resizable=0;points=[];fontSize=16;" vertex="1" connectable="0" parent="fo_EU_42IXRzwxVgpPz2-88">
          <mxGeometry x="-0.2825" relative="1" as="geometry">
            <mxPoint as="offset" />
          </mxGeometry>
        </mxCell>
        <mxCell id="fo_EU_42IXRzwxVgpPz2-90" value="Is i &amp;lt; 12?" style="rhombus;whiteSpace=wrap;html=1;fontSize=16;" vertex="1" parent="1">
          <mxGeometry x="-3040.95" y="-8720" width="96.25" height="90" as="geometry" />
        </mxCell>
        <mxCell id="fo_EU_42IXRzwxVgpPz2-91" value="" style="endArrow=classic;html=1;rounded=0;fontSize=12;startSize=8;endSize=8;curved=1;entryX=0.5;entryY=0;entryDx=0;entryDy=0;exitX=0.5;exitY=1;exitDx=0;exitDy=0;" edge="1" parent="1" source="fo_EU_42IXRzwxVgpPz2-87" target="fo_EU_42IXRzwxVgpPz2-90">
          <mxGeometry width="50" height="50" relative="1" as="geometry">
            <mxPoint x="-3100" y="-8690" as="sourcePoint" />
            <mxPoint x="-3060" y="-8730" as="targetPoint" />
          </mxGeometry>
        </mxCell>
        <mxCell id="fo_EU_42IXRzwxVgpPz2-92" value="Continue walking" style="rounded=0;whiteSpace=wrap;html=1;fontSize=16;" vertex="1" parent="1">
          <mxGeometry x="-2460" y="-8705" width="120" height="60" as="geometry" />
        </mxCell>
        <mxCell id="fo_EU_42IXRzwxVgpPz2-93" value="" style="endArrow=classic;html=1;rounded=0;fontSize=12;startSize=8;endSize=8;curved=1;movable=1;resizable=1;rotatable=1;deletable=1;editable=1;locked=0;connectable=1;exitX=1;exitY=0.5;exitDx=0;exitDy=0;entryX=0;entryY=0.5;entryDx=0;entryDy=0;" edge="1" parent="1" source="fo_EU_42IXRzwxVgpPz2-90" target="fo_EU_42IXRzwxVgpPz2-92">
          <mxGeometry width="50" height="50" relative="1" as="geometry">
            <mxPoint x="-2940" y="-8670" as="sourcePoint" />
            <mxPoint x="-2660" y="-8890" as="targetPoint" />
          </mxGeometry>
        </mxCell>
        <mxCell id="fo_EU_42IXRzwxVgpPz2-98" value="Yes" style="edgeLabel;html=1;align=center;verticalAlign=middle;resizable=0;points=[];fontSize=16;" vertex="1" connectable="0" parent="fo_EU_42IXRzwxVgpPz2-93">
          <mxGeometry x="-0.0545" y="3" relative="1" as="geometry">
            <mxPoint as="offset" />
          </mxGeometry>
        </mxCell>
        <mxCell id="fo_EU_42IXRzwxVgpPz2-94" value="" style="endArrow=none;html=1;rounded=0;fontSize=12;startSize=8;endSize=8;curved=1;exitX=0.5;exitY=0;exitDx=0;exitDy=0;" edge="1" parent="1" source="fo_EU_42IXRzwxVgpPz2-92">
          <mxGeometry width="50" height="50" relative="1" as="geometry">
            <mxPoint x="-2590" y="-9400" as="sourcePoint" />
            <mxPoint x="-2400" y="-10030" as="targetPoint" />
          </mxGeometry>
        </mxCell>
        <mxCell id="fo_EU_42IXRzwxVgpPz2-95" value="" style="endArrow=classic;html=1;rounded=0;fontSize=12;startSize=8;endSize=8;curved=1;entryX=1;entryY=0.5;entryDx=0;entryDy=0;" edge="1" parent="1" target="fo_EU_42IXRzwxVgpPz2-15">
          <mxGeometry width="50" height="50" relative="1" as="geometry">
            <mxPoint x="-2400" y="-10025" as="sourcePoint" />
            <mxPoint x="-2900" y="-10030" as="targetPoint" />
          </mxGeometry>
        </mxCell>
        <mxCell id="fo_EU_42IXRzwxVgpPz2-99" value="Make car go straight forward" style="rounded=0;whiteSpace=wrap;html=1;fontSize=16;" vertex="1" parent="1">
          <mxGeometry x="-3052.8199999999997" y="-8540" width="120" height="60" as="geometry" />
        </mxCell>
        <mxCell id="fo_EU_42IXRzwxVgpPz2-100" value="" style="endArrow=classic;html=1;rounded=0;fontSize=12;startSize=8;endSize=8;curved=1;entryX=0.5;entryY=0;entryDx=0;entryDy=0;exitX=0.5;exitY=1;exitDx=0;exitDy=0;" edge="1" parent="1" source="fo_EU_42IXRzwxVgpPz2-90" target="fo_EU_42IXRzwxVgpPz2-99">
          <mxGeometry width="50" height="50" relative="1" as="geometry">
            <mxPoint x="-3020" y="-8600" as="sourcePoint" />
            <mxPoint x="-2970" y="-8650" as="targetPoint" />
          </mxGeometry>
        </mxCell>
        <mxCell id="fo_EU_42IXRzwxVgpPz2-101" value="No" style="edgeLabel;html=1;align=center;verticalAlign=middle;resizable=0;points=[];fontSize=16;" vertex="1" connectable="0" parent="fo_EU_42IXRzwxVgpPz2-100">
          <mxGeometry x="-0.2685" y="2" relative="1" as="geometry">
            <mxPoint as="offset" />
          </mxGeometry>
        </mxCell>
        <mxCell id="fo_EU_42IXRzwxVgpPz2-102" value="Is front wall detected?" style="rhombus;whiteSpace=wrap;html=1;fontSize=16;" vertex="1" parent="1">
          <mxGeometry x="-3057.81" y="-8320" width="130" height="130" as="geometry" />
        </mxCell>
        <mxCell id="fo_EU_42IXRzwxVgpPz2-103" value="" style="endArrow=classic;html=1;rounded=0;fontSize=12;startSize=8;endSize=8;curved=1;entryX=0.5;entryY=0;entryDx=0;entryDy=0;exitX=0.5;exitY=1;exitDx=0;exitDy=0;" edge="1" parent="1" source="fo_EU_42IXRzwxVgpPz2-104" target="fo_EU_42IXRzwxVgpPz2-102">
          <mxGeometry width="50" height="50" relative="1" as="geometry">
            <mxPoint x="-2980" y="-8370" as="sourcePoint" />
            <mxPoint x="-2990" y="-8480" as="targetPoint" />
          </mxGeometry>
        </mxCell>
        <mxCell id="fo_EU_42IXRzwxVgpPz2-104" value="Rplidar measures from the front wall" style="rounded=0;whiteSpace=wrap;html=1;fontSize=16;" vertex="1" parent="1">
          <mxGeometry x="-3052.81" y="-8440" width="120" height="60" as="geometry" />
        </mxCell>
        <mxCell id="fo_EU_42IXRzwxVgpPz2-105" value="" style="endArrow=classic;html=1;rounded=0;fontSize=12;startSize=8;endSize=8;curved=1;exitX=0.5;exitY=1;exitDx=0;exitDy=0;entryX=0.5;entryY=0;entryDx=0;entryDy=0;" edge="1" parent="1" source="fo_EU_42IXRzwxVgpPz2-99" target="fo_EU_42IXRzwxVgpPz2-104">
          <mxGeometry width="50" height="50" relative="1" as="geometry">
            <mxPoint x="-3050" y="-8390" as="sourcePoint" />
            <mxPoint x="-3000" y="-8440" as="targetPoint" />
          </mxGeometry>
        </mxCell>
        <mxCell id="fo_EU_42IXRzwxVgpPz2-106" value="Stop" style="rounded=1;whiteSpace=wrap;html=1;arcSize=50;" vertex="1" parent="1">
          <mxGeometry x="-3037.82" y="-8120" width="90" height="40" as="geometry" />
        </mxCell>
        <mxCell id="fo_EU_42IXRzwxVgpPz2-107" value="" style="endArrow=classic;html=1;rounded=0;fontSize=12;startSize=8;endSize=8;curved=1;exitX=0.5;exitY=1;exitDx=0;exitDy=0;entryX=0.5;entryY=0;entryDx=0;entryDy=0;" edge="1" parent="1" source="fo_EU_42IXRzwxVgpPz2-102" target="fo_EU_42IXRzwxVgpPz2-106">
          <mxGeometry width="50" height="50" relative="1" as="geometry">
            <mxPoint x="-2950" y="-8160" as="sourcePoint" />
            <mxPoint x="-2900" y="-8210" as="targetPoint" />
          </mxGeometry>
        </mxCell>
        <mxCell id="fo_EU_42IXRzwxVgpPz2-108" value="Yes" style="edgeLabel;html=1;align=center;verticalAlign=middle;resizable=0;points=[];fontSize=16;" vertex="1" connectable="0" parent="fo_EU_42IXRzwxVgpPz2-107">
          <mxGeometry x="-0.3143" y="-7" relative="1" as="geometry">
            <mxPoint as="offset" />
          </mxGeometry>
        </mxCell>
        <mxCell id="fo_EU_42IXRzwxVgpPz2-109" value="" style="endArrow=classic;html=1;rounded=0;fontSize=12;startSize=8;endSize=8;curved=1;entryX=1;entryY=0.5;entryDx=0;entryDy=0;" edge="1" parent="1" target="fo_EU_42IXRzwxVgpPz2-99">
          <mxGeometry width="50" height="50" relative="1" as="geometry">
            <mxPoint x="-2840" y="-8510" as="sourcePoint" />
            <mxPoint x="-2930" y="-8420" as="targetPoint" />
          </mxGeometry>
        </mxCell>
        <mxCell id="fo_EU_42IXRzwxVgpPz2-110" value="" style="endArrow=none;html=1;rounded=0;fontSize=12;startSize=8;endSize=8;curved=1;exitX=1;exitY=0.5;exitDx=0;exitDy=0;" edge="1" parent="1" source="fo_EU_42IXRzwxVgpPz2-106">
          <mxGeometry width="50" height="50" relative="1" as="geometry">
            <mxPoint x="-2900" y="-8140" as="sourcePoint" />
            <mxPoint x="-2840" y="-8100" as="targetPoint" />
          </mxGeometry>
        </mxCell>
        <mxCell id="fo_EU_42IXRzwxVgpPz2-111" value="" style="endArrow=none;html=1;rounded=0;fontSize=12;startSize=8;endSize=8;curved=1;" edge="1" parent="1">
          <mxGeometry width="50" height="50" relative="1" as="geometry">
            <mxPoint x="-2840" y="-8100" as="sourcePoint" />
            <mxPoint x="-2840" y="-8510" as="targetPoint" />
          </mxGeometry>
        </mxCell>
      </root>
    </mxGraphModel>
  </diagram>
</mxfile>
